<?xml version="1.0"?>
<svg xmlns="http://www.w3.org/2000/svg" width="96" height="74" viewBox="0 0 96 74" fill="none">
<path opacity="0.25" d="M50.7891 37.3066C50.7891 43.0684 50.3333 48.2116 49.4219 52.7363C48.543 57.2611 47.1107 61.1022 45.125 64.2598C43.1719 67.4173 40.6003 69.8262 37.4102 71.4863C34.2201 73.1465 30.3464 73.9766 25.7891 73.9766C20.0599 73.9766 15.3561 72.528 11.6777 69.6309C7.99935 66.7012 5.28125 62.502 3.52344 57.0332C1.76562 51.5319 0.886719 44.9564 0.886719 37.3066C0.886719 29.5918 1.68424 23 3.2793 17.5312C4.9069 12.0299 7.54362 7.81445 11.1895 4.88477C14.8353 1.95508 19.7018 0.490234 25.7891 0.490234C31.4857 0.490234 36.1732 1.95508 39.8516 4.88477C43.5625 7.7819 46.3132 11.9811 48.1035 17.4824C49.8939 22.9512 50.7891 29.5592 50.7891 37.3066ZM15.877 37.3066C15.877 42.7428 16.1699 47.2839 16.7559 50.9297C17.3743 54.543 18.3997 57.2611 19.832 59.084C21.2643 60.9069 23.25 61.8184 25.7891 61.8184C28.2956 61.8184 30.265 60.9232 31.6973 59.1328C33.1621 57.3099 34.2038 54.5918 34.8223 50.9785C35.4408 47.3327 35.75 42.7754 35.75 37.3066C35.75 31.8704 35.4408 27.3294 34.8223 23.6836C34.2038 20.0378 33.1621 17.3034 31.6973 15.4805C30.265 13.625 28.2956 12.6973 25.7891 12.6973C23.25 12.6973 21.2643 13.625 19.832 15.4805C18.3997 17.3034 17.3743 20.0378 16.7559 23.6836C16.1699 27.3294 15.877 31.8704 15.877 37.3066ZM95.8086 73H80.7207V31.6914C80.7207 30.5521 80.737 29.1523 80.7695 27.4922C80.8021 25.7995 80.8509 24.0742 80.916 22.3164C80.9811 20.526 81.0462 18.9147 81.1113 17.4824C80.7533 17.9056 80.0208 18.638 78.9141 19.6797C77.8398 20.6888 76.8307 21.6003 75.8867 22.4141L67.6836 29.0059L60.4082 19.9238L83.4062 1.61328H95.8086V73Z" fill="#4E6172" fill-opacity="0.3"/>
</svg>
