<?xml version="1.0"?>
<svg xmlns="http://www.w3.org/2000/svg" width="109" height="74" viewBox="0 0 109 74" fill="none">
<path opacity="0.25" d="M50.7891 37.3066C50.7891 43.0684 50.3333 48.2116 49.4219 52.7363C48.543 57.2611 47.1107 61.1022 45.125 64.2598C43.1719 67.4173 40.6003 69.8262 37.4102 71.4863C34.2201 73.1465 30.3464 73.9766 25.7891 73.9766C20.0599 73.9766 15.3561 72.528 11.6777 69.6309C7.99935 66.7012 5.28125 62.502 3.52344 57.0332C1.76562 51.5319 0.886719 44.9564 0.886719 37.3066C0.886719 29.5918 1.68424 23 3.2793 17.5312C4.9069 12.0299 7.54362 7.81445 11.1895 4.88477C14.8353 1.95508 19.7018 0.490234 25.7891 0.490234C31.4857 0.490234 36.1732 1.95508 39.8516 4.88477C43.5625 7.7819 46.3132 11.9811 48.1035 17.4824C49.8939 22.9512 50.7891 29.5592 50.7891 37.3066ZM15.877 37.3066C15.877 42.7428 16.1699 47.2839 16.7559 50.9297C17.3743 54.543 18.3997 57.2611 19.832 59.084C21.2643 60.9069 23.25 61.8184 25.7891 61.8184C28.2956 61.8184 30.265 60.9232 31.6973 59.1328C33.1621 57.3099 34.2038 54.5918 34.8223 50.9785C35.4408 47.3327 35.75 42.7754 35.75 37.3066C35.75 31.8704 35.4408 27.3294 34.8223 23.6836C34.2038 20.0378 33.1621 17.3034 31.6973 15.4805C30.265 13.625 28.2956 12.6973 25.7891 12.6973C23.25 12.6973 21.2643 13.625 19.832 15.4805C18.3997 17.3034 17.3743 20.0378 16.7559 23.6836C16.1699 27.3294 15.877 31.8704 15.877 37.3066ZM108.406 73H58.5039V62.502L76.4238 44.3867C80.0371 40.6758 82.9342 37.5833 85.1152 35.1094C87.3288 32.6029 88.9238 30.3242 89.9004 28.2734C90.9095 26.2227 91.4141 24.0254 91.4141 21.6816C91.4141 18.8496 90.6165 16.7337 89.0215 15.334C87.459 13.9017 85.3594 13.1855 82.7227 13.1855C79.9557 13.1855 77.2702 13.8203 74.666 15.0898C72.0618 16.3594 69.3438 18.166 66.5117 20.5098L58.3086 10.793C60.3594 9.03516 62.5241 7.375 64.8027 5.8125C67.1139 4.25 69.7832 2.99674 72.8105 2.05273C75.8704 1.07617 79.5326 0.587891 83.7969 0.587891C88.4844 0.587891 92.5046 1.43424 95.8574 3.12695C99.2428 4.81966 101.847 7.13086 103.67 10.0605C105.493 12.9577 106.404 16.2454 106.404 19.9238C106.404 23.8626 105.623 27.4596 104.061 30.7148C102.498 33.9701 100.219 37.1927 97.2246 40.3828C94.2624 43.5729 90.6816 47.1048 86.4824 50.9785L77.3027 59.6211V60.3047H108.406V73Z" fill="#4E6172" fill-opacity="0.3"/>
</svg>
