<?xml version="1.0"?>
<svg xmlns="http://www.w3.org/2000/svg" width="20" height="20" viewBox="0 0 20 20" fill="none">
<g id="check 1" clip-path="url(#clip0_1765_885)">
<path id="Vector" d="M10 0C4.48578 0 0 4.48578 0 10C0 15.5142 4.48578 20 10 20C15.5142 20 20 15.5142 20 10C20 4.48578 15.5142 0 10 0Z" fill="#FAD74F"/>
<path id="Vector_2" d="M15.0686 7.88123L9.65186 13.2978C9.48935 13.4603 9.27603 13.5421 9.06271 13.5421C8.8494 13.5421 8.63608 13.4603 8.47357 13.2978L5.76529 10.5895C5.43936 10.2637 5.43936 9.737 5.76529 9.41122C6.09106 9.0853 6.61765 9.0853 6.94357 9.41122L9.06271 11.5304L13.8903 6.70294C14.2161 6.37701 14.7426 6.37701 15.0686 6.70294C15.3943 7.02872 15.3943 7.5553 15.0686 7.88123Z" fill="#282323"/>
</g>
<defs>
<clipPath id="clip0_1765_885">
<rect width="20" height="20" fill="white"/>
</clipPath>
</defs>
</svg>
