<?xml version="1.0"?>
<svg xmlns="http://www.w3.org/2000/svg" width="25" height="25" viewBox="0 0 25 25" fill="none">
<g id="close (1) 1" clip-path="url(#clip0_1765_1204)">
<g id="Layer 22">
<path id="Vector" d="M16.5356 9.68056L13.4584 12.7148L16.5356 15.7491C16.6212 15.8293 16.6895 15.9262 16.7361 16.0338C16.7828 16.1415 16.8069 16.2575 16.8069 16.3748C16.8069 16.4922 16.7828 16.6082 16.7361 16.7158C16.6895 16.8235 16.6212 16.9204 16.5356 17.0006C16.4555 17.08 16.3605 17.1428 16.2561 17.1855C16.1516 17.2282 16.0398 17.2498 15.927 17.2491C15.7021 17.2482 15.4867 17.1589 15.327 17.0006L12.2499 13.9234L9.21558 17.0006C9.05593 17.1589 8.84044 17.2482 8.61558 17.2491C8.50277 17.2498 8.39095 17.2282 8.28652 17.1855C8.18208 17.1428 8.0871 17.08 8.00701 17.0006C7.84736 16.84 7.75776 16.6227 7.75776 16.3963C7.75776 16.1698 7.84736 15.9526 8.00701 15.792L11.0413 12.7148L8.00701 9.68056C7.86658 9.51659 7.79321 9.30567 7.80154 9.08994C7.80987 8.87422 7.8993 8.66959 8.05195 8.51693C8.2046 8.36428 8.40924 8.27485 8.62496 8.26652C8.84068 8.25819 9.0516 8.33157 9.21558 8.47199L12.2499 11.5063L15.2841 8.47199C15.3635 8.38982 15.4583 8.32408 15.563 8.27854C15.6678 8.23299 15.7805 8.20852 15.8947 8.20653C16.0089 8.20454 16.1224 8.22507 16.2287 8.26694C16.335 8.30881 16.432 8.3712 16.5141 8.45056C16.5963 8.52992 16.662 8.62468 16.7076 8.72944C16.7531 8.8342 16.7776 8.94691 16.7796 9.06112C16.7816 9.17534 16.7611 9.28883 16.7192 9.39511C16.6773 9.50139 16.6149 9.59839 16.5356 9.68056ZM20.7356 21.2006C19.0573 22.8787 16.9191 24.0214 14.5914 24.4844C12.2636 24.9473 9.85089 24.7096 7.65825 23.8013C5.4656 22.893 3.59153 21.3549 2.27301 19.3816C0.954489 17.4082 0.250732 15.0882 0.250732 12.7148C0.250732 10.3415 0.954489 8.02149 2.27301 6.04813C3.59153 4.07477 5.4656 2.5367 7.65825 1.62841C9.85089 0.720124 12.2636 0.482413 14.5914 0.945336C16.9191 1.40826 19.0573 2.55103 20.7356 4.22913C21.85 5.34345 22.734 6.66638 23.3372 8.12236C23.9403 9.57835 24.2507 11.1389 24.2507 12.7148C24.2507 14.2908 23.9403 15.8513 23.3372 17.3073C22.734 18.7633 21.85 20.0862 20.7356 21.2006ZM19.527 5.4377C18.0871 4.00279 16.2543 3.02672 14.26 2.63274C12.2658 2.23875 10.1995 2.44453 8.32213 3.22408C6.44474 4.00363 4.84044 5.32199 3.71181 7.01269C2.58318 8.70339 1.98083 10.6906 1.98083 12.7234C1.98083 14.7562 2.58318 16.7434 3.71181 18.4341C4.84044 20.1248 6.44474 21.4432 8.32213 22.2227C10.1995 23.0023 12.2658 23.2081 14.26 22.8141C16.2543 22.4201 18.0871 21.444 19.527 20.0091C20.4859 19.0535 21.2467 17.9181 21.7659 16.6678C22.285 15.4176 22.5523 14.0772 22.5523 12.7234C22.5523 11.3697 22.285 10.0292 21.7659 8.779C21.2467 7.52875 20.4859 6.39328 19.527 5.4377Z" fill="#282323"/>
</g>
</g>
<defs>
<clipPath id="clip0_1765_1204">
<rect width="24" height="24" fill="white" transform="translate(0.25 0.714844)"/>
</clipPath>
</defs>
</svg>
