<?xml version="1.0"?>
<svg xmlns="http://www.w3.org/2000/svg" width="64" height="64" viewBox="0 0 64 64" fill="none">
<circle cx="32" cy="32" r="31" stroke="#4E6172" stroke-width="2"/>
<path d="M45.0449 35.6529L43.8872 36.8106L42.078 35.0013L43.7667 33.3126C43.9792 33.1001 44.1458 32.8462 44.2562 32.5667C44.3666 32.2871 44.4183 31.9879 44.4083 31.6875C44.3916 31.08 44.1412 30.5023 43.7092 30.0747C43.4301 29.7944 43.0857 29.5878 42.707 29.4737C42.8 29.2121 42.8437 28.9356 42.836 28.6581C42.8187 28.1397 42.6336 27.6409 42.3086 27.2366C41.9835 26.8324 41.5361 26.5445 41.0335 26.4163C41.1338 26.0202 41.1289 25.6047 41.0193 25.211C40.9097 24.8173 40.6991 24.4591 40.4085 24.1717C40.1129 23.875 39.7443 23.6616 39.3398 23.553C39.4542 23.1493 39.4582 22.7222 39.3513 22.3164C39.2443 21.9107 39.0304 21.541 38.7319 21.2462C37.8233 20.3377 36.3709 20.3119 35.494 21.1887L34.7456 21.937L29.968 20.7603C29.6416 20.6789 29.3009 20.6734 28.972 20.7441C28.6431 20.8148 28.3348 20.9598 28.0707 21.1681C27.8894 21.3102 27.7313 21.4795 27.602 21.6701C27.2182 21.4457 26.7765 21.3401 26.3327 21.3668C25.8889 21.3934 25.4629 21.551 25.1087 21.8196C24.7544 22.0883 24.4878 22.4559 24.3424 22.8761C24.1971 23.2963 24.1796 23.7501 24.2921 24.1802C23.9811 24.2779 23.6983 24.4494 23.4679 24.6801L23.1631 24.985C22.9106 25.2379 22.7292 25.5528 22.6371 25.898C22.5451 26.2432 22.5455 26.6066 22.6385 26.9516C22.3431 27.0512 22.0747 27.2179 21.8544 27.4386L21.5497 27.7435C21.2731 28.0203 21.0821 28.371 20.9997 28.7535C20.9173 29.136 20.9469 29.5342 21.0849 29.9004C20.8271 30.0027 20.5931 30.1568 20.3972 30.3532L20.0924 30.6581C19.9035 30.8469 19.7537 31.071 19.6515 31.3177C19.5492 31.5645 19.4966 31.8289 19.4966 32.0959C19.4966 32.363 19.5492 32.6274 19.6515 32.8742C19.7537 33.1209 19.9035 33.345 20.0924 33.5338L21.4651 34.9065L19.8364 36.5344L18.9551 35.6529L15.231 39.3771L16.2255 40.3716L18.9551 37.6419L27.5894 46.2763L24.8598 49.0059L25.854 50.0001L29.578 46.276L28.7049 45.4029L31.0596 43.0483C32.0777 43.6872 33.2528 44.0319 34.4547 44.044L35.5543 45.1436L34.4223 46.2757L38.146 50.0001L39.1405 49.0056L36.4108 46.2759L45.0452 37.6416L47.7748 40.3712L48.7693 39.3767L45.0449 35.6529ZM28.938 22.2748C29.0346 22.1987 29.1473 22.1456 29.2675 22.1198C29.3877 22.094 29.5123 22.0961 29.6316 22.1259L33.5837 23.0993L31.553 25.1301L29.3044 24.0071C29.1005 23.9062 28.929 23.7501 28.8094 23.5566C28.6897 23.3632 28.6267 23.14 28.6275 22.9126C28.6272 22.7896 28.655 22.6682 28.7088 22.5577C28.7626 22.4471 28.841 22.3504 28.938 22.2748ZM25.8713 23.0161C25.9496 22.9378 26.0424 22.8758 26.1447 22.8334C26.2469 22.7911 26.3564 22.7693 26.4671 22.7693C26.5777 22.7693 26.6873 22.7911 26.7895 22.8334C26.8917 22.8758 26.9846 22.9378 27.0628 23.0161L27.2372 23.1904C27.2821 23.6296 27.4376 24.0504 27.6892 24.4132C27.9408 24.7761 28.2803 25.0692 28.676 25.2652L30.0918 25.9723L30.0554 26.0086L30.8622 26.8154C31.0202 26.9734 31.109 27.1877 31.1089 27.4112C31.1089 27.6346 31.0202 27.8489 30.8622 28.0069C30.7042 28.1649 30.4899 28.2536 30.2664 28.2536C30.043 28.2536 29.8287 28.1649 29.6707 28.0069L25.8713 24.2075C25.7931 24.1293 25.731 24.0364 25.6887 23.9342C25.6464 23.832 25.6246 23.7224 25.6246 23.6118C25.6246 23.5012 25.6464 23.3916 25.6887 23.2894C25.731 23.1872 25.7931 23.0943 25.8713 23.0161ZM24.1575 25.9789L24.4624 25.6741C24.58 25.5567 24.7394 25.4907 24.9057 25.4907C25.0719 25.4907 25.2313 25.5567 25.349 25.6741L28.8289 29.1538C28.9465 29.2714 29.0125 29.4308 29.0125 29.5971C29.0125 29.7634 28.9465 29.9229 28.8289 30.0404L28.5241 30.3452C28.4064 30.4627 28.247 30.5286 28.0808 30.5286C27.9146 30.5286 27.7551 30.4627 27.6375 30.3452L24.7297 27.438L24.1572 26.8655C24.0398 26.7478 23.974 26.5884 23.974 26.4222C23.9741 26.2559 24.04 26.0965 24.1575 25.9789ZM22.5442 28.7376L22.8489 28.4327C22.9666 28.3153 23.126 28.2494 23.2922 28.2494C23.4584 28.2494 23.6179 28.3153 23.7355 28.4327L26.6427 31.3399C26.7601 31.4576 26.826 31.617 26.826 31.7832C26.826 31.9494 26.7601 32.1089 26.6427 32.2265L26.3379 32.5314C26.2203 32.6489 26.0609 32.7149 25.8947 32.7149C25.7284 32.7149 25.569 32.6489 25.4514 32.5314L22.5443 29.6243C22.4861 29.566 22.4399 29.4969 22.4083 29.4209C22.3768 29.3448 22.3606 29.2633 22.3606 29.1809C22.3606 29.0986 22.3768 29.0171 22.4083 28.941C22.4399 28.8649 22.4861 28.7958 22.5443 28.7376H22.5442ZM21.0868 32.5386C21.0286 32.4804 20.9824 32.4113 20.9509 32.3352C20.9193 32.2591 20.9031 32.1776 20.9031 32.0953C20.9031 32.0129 20.9193 31.9314 20.9509 31.8554C20.9824 31.7793 21.0286 31.7102 21.0868 31.652L21.3917 31.3471C21.5092 31.2297 21.6685 31.1638 21.8346 31.1638C22.0007 31.1638 22.1601 31.2297 22.2776 31.3471L24.4567 33.5259C24.515 33.5841 24.5611 33.6532 24.5927 33.7293C24.6242 33.8053 24.6404 33.8868 24.6404 33.9692C24.6404 34.0515 24.6242 34.133 24.5927 34.2091C24.5611 34.2852 24.515 34.3543 24.4567 34.4125L24.1519 34.7173C24.0937 34.7755 24.0246 34.8217 23.9485 34.8533C23.8725 34.8848 23.7909 34.901 23.7086 34.901C23.6263 34.901 23.5447 34.8848 23.4687 34.8533C23.3926 34.8217 23.3235 34.7755 23.2653 34.7173L21.0868 32.5386ZM20.8309 37.5288L22.4721 35.8877C22.8634 36.1877 23.3503 36.3353 23.8423 36.3029C24.3343 36.2706 24.7978 36.0606 25.1464 35.7119L25.4512 35.4071C25.7977 35.0623 26.0073 34.6035 26.041 34.1158C26.5287 34.0821 26.9875 33.8725 27.3323 33.526L27.6372 33.2212C27.9839 32.8761 28.1935 32.4169 28.227 31.9288C28.7144 31.8948 29.173 31.6857 29.5183 31.3401L29.8231 31.0352C30.1917 30.6684 30.4046 30.1735 30.4173 29.6536C30.7876 29.6288 31.146 29.5127 31.4605 29.3156C31.775 29.1186 32.0359 28.8468 32.2197 28.5244C32.4036 28.202 32.5049 27.8392 32.5144 27.4682C32.524 27.0972 32.4416 26.7296 32.2745 26.3982L36.4887 22.1839C36.8172 21.8554 37.3776 21.8812 37.7377 22.2414C38.0978 22.6017 38.1237 23.1619 37.7952 23.4903L37.1706 24.1148L34.7245 26.5611L35.719 27.5556L38.1651 25.1093C38.4935 24.7808 39.0539 24.8066 39.414 25.1669C39.7742 25.5271 39.8 26.0874 39.4715 26.4158L37.0254 28.8619L38.0198 29.8556L39.8935 27.982C39.9715 27.9048 40.0645 27.8445 40.1668 27.8049C40.2691 27.7653 40.3785 27.7473 40.4881 27.7518C40.7345 27.7624 40.9681 27.865 41.1426 28.0395C41.317 28.214 41.4197 28.4475 41.4302 28.694C41.4346 28.8036 41.4165 28.9129 41.3769 29.0152C41.3373 29.1175 41.2771 29.2105 41.2 29.2886L39.3266 31.1623L40.3211 32.1568L41.4665 31.0112C41.5446 30.9343 41.6375 30.8743 41.7397 30.8348C41.8419 30.7953 41.9511 30.7772 42.0606 30.7816C42.3071 30.7921 42.5407 30.8948 42.7151 31.0693C42.8896 31.2437 42.9922 31.4773 43.0028 31.7238C43.0072 31.8334 42.989 31.9427 42.9494 32.045C42.9098 32.1472 42.8496 32.2403 42.7726 32.3183L41.7677 33.3227L37.1293 37.961C35.7332 39.3548 33.8967 40.2212 31.9332 40.4124L31.682 40.4367L27.7102 44.4084L20.8309 37.5288ZM35.023 42.6233L34.7167 42.6345C33.801 42.6695 32.8928 42.4576 32.087 42.021L32.3239 41.7842C34.5182 41.513 36.5593 40.5175 38.1241 38.9555L40.8003 36.2793L41.0838 35.9958L42.8928 37.8051L36.5487 44.1491L35.023 42.6233Z" fill="#4E6172"/>
<path d="M31.2969 14H32.703V16.5569H31.2969V14Z" fill="#4E6172"/>
<path d="M38.5075 18.0178L40.3152 16.2101L41.3094 17.2043L39.5016 19.012L38.5075 18.0178Z" fill="#4E6172"/>
<path d="M22.686 17.2026L23.6801 16.2085L25.4879 18.0162L24.4937 19.0104L22.686 17.2026Z" fill="#4E6172"/>
<path d="M19.0837 22.3735H21.6406V23.7796H19.0837V22.3735Z" fill="#4E6172"/>
<path d="M42.3593 22.3735H44.9163V23.7796H42.3593V22.3735Z" fill="#4E6172"/>
</svg>
