<?xml version="1.0"?>
<svg xmlns="http://www.w3.org/2000/svg" width="108" height="74" viewBox="0 0 108 74" fill="none">
<path opacity="0.25" d="M50.7891 37.3066C50.7891 43.0684 50.3333 48.2116 49.4219 52.7363C48.543 57.2611 47.1107 61.1022 45.125 64.2598C43.1719 67.4173 40.6003 69.8262 37.4102 71.4863C34.2201 73.1465 30.3464 73.9766 25.7891 73.9766C20.0599 73.9766 15.3561 72.528 11.6777 69.6309C7.99935 66.7012 5.28125 62.502 3.52344 57.0332C1.76562 51.5319 0.886719 44.9564 0.886719 37.3066C0.886719 29.5918 1.68424 23 3.2793 17.5312C4.9069 12.0299 7.54362 7.81445 11.1895 4.88477C14.8353 1.95508 19.7018 0.490234 25.7891 0.490234C31.4857 0.490234 36.1732 1.95508 39.8516 4.88477C43.5625 7.7819 46.3132 11.9811 48.1035 17.4824C49.8939 22.9512 50.7891 29.5592 50.7891 37.3066ZM15.877 37.3066C15.877 42.7428 16.1699 47.2839 16.7559 50.9297C17.3743 54.543 18.3997 57.2611 19.832 59.084C21.2643 60.9069 23.25 61.8184 25.7891 61.8184C28.2956 61.8184 30.265 60.9232 31.6973 59.1328C33.1621 57.3099 34.2038 54.5918 34.8223 50.9785C35.4408 47.3327 35.75 42.7754 35.75 37.3066C35.75 31.8704 35.4408 27.3294 34.8223 23.6836C34.2038 20.0378 33.1621 17.3034 31.6973 15.4805C30.265 13.625 28.2956 12.6973 25.7891 12.6973C23.25 12.6973 21.2643 13.625 19.832 15.4805C18.3997 17.3034 17.3743 20.0378 16.7559 23.6836C16.1699 27.3294 15.877 31.8704 15.877 37.3066ZM105.623 17.5801C105.623 20.8678 104.939 23.7161 103.572 26.125C102.205 28.5339 100.35 30.5033 98.0059 32.0332C95.6947 33.5632 93.0905 34.6862 90.1934 35.4023V35.6953C95.9225 36.4115 100.268 38.1693 103.23 40.9688C106.225 43.7682 107.723 47.5117 107.723 52.1992C107.723 56.3659 106.697 60.0931 104.646 63.3809C102.628 66.6686 99.5033 69.2565 95.2715 71.1445C91.0397 73.0326 85.5872 73.9766 78.9141 73.9766C74.9753 73.9766 71.2969 73.651 67.8789 73C64.4935 72.3815 61.3034 71.4212 58.3086 70.1191V57.2773C61.3685 58.8398 64.5749 60.028 67.9277 60.8418C71.2806 61.623 74.4056 62.0137 77.3027 62.0137C82.7064 62.0137 86.4824 61.0859 88.6309 59.2305C90.8118 57.3424 91.9023 54.7057 91.9023 51.3203C91.9023 49.3346 91.3978 47.6582 90.3887 46.291C89.3796 44.9238 87.6217 43.8822 85.1152 43.166C82.6413 42.4499 79.1745 42.0918 74.7148 42.0918H69.2949V30.5195H74.8125C79.207 30.5195 82.5436 30.1126 84.8223 29.2988C87.1335 28.4525 88.696 27.3132 89.5098 25.8809C90.3561 24.416 90.7793 22.7559 90.7793 20.9004C90.7793 18.3613 89.998 16.3757 88.4355 14.9434C86.873 13.5111 84.2689 12.7949 80.623 12.7949C78.3444 12.7949 76.2611 13.0879 74.373 13.6738C72.5176 14.2272 70.8411 14.9108 69.3438 15.7246C67.8464 16.5059 66.528 17.2708 65.3887 18.0195L58.4062 7.61914C61.2057 5.60091 64.4772 3.92448 68.2207 2.58984C71.9967 1.25521 76.4889 0.587891 81.6973 0.587891C89.054 0.587891 94.8809 2.06901 99.1777 5.03125C103.475 7.99349 105.623 12.1764 105.623 17.5801Z" fill="#4E6172" fill-opacity="0.3"/>
</svg>
