<?xml version="1.0"?>
<svg xmlns="http://www.w3.org/2000/svg" width="65" height="64" viewBox="0 0 65 64" fill="none">
<circle cx="32.6667" cy="32" r="31" stroke="#4E6172" stroke-width="2"/>
<g clip-path="url(#clip0_1765_943)">
<path d="M47.9394 37.8417C47.9394 37.0181 47.6175 36.2435 47.0339 35.6599C46.6412 35.2672 46.1503 34.989 45.6157 34.8526L45.3539 34.7872L45.4194 34.5253C45.6757 33.4672 45.3703 32.3762 44.6012 31.6072C44.2085 31.2144 43.7176 30.9362 43.183 30.7999L42.9212 30.7344L42.9866 30.4726C43.243 29.4144 42.9376 28.3235 42.1685 27.5544C41.8957 27.2817 41.5794 27.0635 41.2248 26.9108L40.8594 26.7526L44.6066 23.0053C45.8121 21.7999 45.8121 19.8363 44.6066 18.6308C44.023 18.0472 43.2485 17.7253 42.4194 17.7253C41.5957 17.7253 40.8157 18.0472 40.2321 18.6308L29.0831 29.7799L28.3412 26.5617C28.0031 25.0835 26.8849 23.9108 25.4285 23.4908C25.0522 23.3817 24.6649 23.3272 24.2831 23.3272C23.1922 23.3272 22.1285 23.7581 21.3376 24.549C21.1904 24.6963 21.1031 24.9035 21.1031 25.1163L21.114 38.5508L17.9013 41.7581C17.5904 42.069 17.5904 42.5762 17.9013 42.8872L24.7849 49.7708C24.9322 49.9181 25.1394 50.0053 25.3467 50.0053H35.3121C36.4412 50.0053 37.5103 49.5635 38.3067 48.7617L47.0339 40.0344C47.6175 39.4508 47.9394 38.6708 47.9394 37.8417ZM42.4139 32.2944C42.8121 32.2944 43.1885 32.4526 43.4721 32.7308C43.7557 33.0144 43.9085 33.3908 43.9085 33.789C43.9085 34.1872 43.7503 34.5635 43.4721 34.8472L41.0394 37.2799C40.7557 37.5635 40.3794 37.7162 39.9812 37.7162C39.583 37.7162 39.2067 37.5581 38.923 37.2799C38.3394 36.6962 38.3394 35.7472 38.923 35.1635L41.3557 32.7308C41.6394 32.4472 42.0157 32.2944 42.4139 32.2944ZM41.0394 28.6781C41.323 28.9617 41.4757 29.3381 41.4757 29.7362C41.4757 30.1344 41.3176 30.5108 41.0394 30.7944L37.7939 34.0399C37.5048 34.329 37.1176 34.4762 36.7358 34.4762C36.3539 34.4762 35.9721 34.329 35.6776 34.0399C35.0939 33.4563 35.0939 32.5072 35.6776 31.9235L38.923 28.6781C39.2067 28.3944 39.583 28.2417 39.9812 28.2417C40.3794 28.2417 40.7557 28.3999 41.0394 28.6781ZM37.183 47.6272C36.6921 48.1181 36.0103 48.4017 35.3121 48.4017H25.6794L19.5976 42.3199L22.4722 39.4453C22.6194 39.2981 22.7067 39.0908 22.7067 38.8781L22.6958 25.4653L22.8103 25.3835C23.4485 24.9417 24.2394 24.8108 24.9867 25.0235C25.8867 25.2799 26.574 26.0053 26.7812 26.9163L27.8449 31.5363C27.8776 31.6835 27.954 31.8144 28.0576 31.9181C28.0849 31.9453 28.8703 32.7308 28.8703 32.7308C30.7958 34.6562 30.7958 37.7872 28.8703 39.7126C28.5594 40.0235 28.5594 40.5308 28.8703 40.8417C29.1812 41.1526 29.6885 41.1526 29.9994 40.8417C31.2321 39.609 31.9085 37.9672 31.9085 36.2217C31.9085 34.4763 31.2321 32.8344 29.9994 31.6017L29.754 31.3562L41.3557 19.7544C41.6394 19.4708 42.0267 19.3126 42.4248 19.3181C42.823 19.3181 43.1939 19.4763 43.4721 19.7544C43.7557 20.0381 43.9085 20.4144 43.9085 20.8126C43.9085 21.2108 43.7503 21.5872 43.4721 21.8708L34.5485 30.7944C33.343 31.9999 33.343 33.9635 34.5485 35.169C35.1049 35.7253 35.8412 36.0417 36.6267 36.069L36.883 36.0799L36.8939 36.3363C36.9212 37.1217 37.243 37.8635 37.7939 38.4144C38.3503 38.9708 39.0867 39.2872 39.8721 39.3144L40.1285 39.3253L40.1394 39.5817C40.1667 40.3672 40.4885 41.1035 41.0394 41.6599C41.3121 41.9326 41.6285 42.1508 41.983 42.309L42.3485 42.4672L37.183 47.6326V47.6272ZM45.9103 38.8999L44.2903 40.5253C44.0066 40.809 43.6303 40.9617 43.2321 40.9617C42.8339 40.9617 42.4576 40.8035 42.1739 40.5253C41.8903 40.2417 41.7376 39.8653 41.7376 39.4617C41.7376 39.0635 41.8957 38.6872 42.1739 38.409L43.7939 36.789C44.0776 36.5053 44.4594 36.3363 44.8576 36.3526C45.2557 36.3526 45.6321 36.5108 45.9103 36.789C46.1939 37.0726 46.3466 37.4435 46.3466 37.8417C46.3466 38.2399 46.1885 38.6162 45.9103 38.8999Z" fill="#4E6172"/>
<path d="M27.9867 14.8018V19.3782C27.9867 19.82 28.3467 20.1745 28.7831 20.1745C29.2194 20.1745 29.5794 19.8145 29.5794 19.3782V14.7909C29.5576 14.2455 29.1649 14 28.7831 14C28.4012 14 28.0085 14.2509 27.9867 14.8018Z" fill="#4E6172"/>
<path d="M22.254 18.2327C22.254 18.4454 22.3358 18.6472 22.4885 18.7945L23.634 19.94C23.9449 20.2509 24.4522 20.2509 24.7631 19.94C25.074 19.6291 25.074 19.1218 24.7631 18.8109L23.6176 17.6654C23.3176 17.3654 22.7885 17.3654 22.4885 17.6654C22.3358 17.8182 22.254 18.0145 22.254 18.2272V18.2327Z" fill="#4E6172"/>
<path d="M32.5794 19.3782C32.5794 19.5909 32.6612 19.7927 32.8139 19.94C33.1249 20.2509 33.6321 20.2509 33.943 19.94L35.0885 18.7945C35.3994 18.4836 35.3994 17.9764 35.0885 17.6655C34.9303 17.5073 34.7285 17.4309 34.5212 17.4309C34.3139 17.4309 34.1121 17.5073 33.9539 17.6655L32.8085 18.8109C32.6558 18.9636 32.5739 19.16 32.5739 19.3727L32.5794 19.3782Z" fill="#4E6172"/>
</g>
<defs>
<clipPath id="clip0_1765_943">
<rect width="30.2726" height="36" fill="white" transform="translate(17.6667 14)"/>
</clipPath>
</defs>
</svg>
