<?xml version="1.0"?>
<svg xmlns="http://www.w3.org/2000/svg" width="16" height="17" viewBox="0 0 16 17" fill="none">
<g id="verified checkmark" clip-path="url(#clip0_1765_1104)">
<path id="Subtract" fill-rule="evenodd" clip-rule="evenodd" d="M14.1915 6.32842C14.3755 6.53874 14.5926 6.71764 14.8342 6.85811L14.8378 6.86056C15.3823 7.23268 16 7.65489 16 8.34079C16 9.02819 15.3818 9.45224 14.8372 9.82421C14.5954 9.96467 14.3782 10.1439 14.1944 10.3546C14.2142 10.6471 14.285 10.9339 14.4035 11.202L14.4073 11.2128C14.6236 11.8208 14.8661 12.5026 14.4719 13.0425C14.0782 13.5817 13.3501 13.5643 12.7004 13.5487L12.6865 13.5484C12.3992 13.5195 12.1092 13.5396 11.8287 13.6079C11.6796 13.8515 11.5729 14.1187 11.5133 14.398L11.5127 14.3998C11.3269 15.0273 11.1161 15.7388 10.4718 15.9484C9.85064 16.1519 9.27593 15.7131 8.76816 15.3254L8.76068 15.3197C8.53803 15.1178 8.28002 14.9586 7.99963 14.8503C7.72213 14.9595 7.46697 15.1186 7.24676 15.3197C6.86644 15.6867 6.38022 15.9246 5.85707 15.9997C5.74823 15.9994 5.64008 15.9823 5.53643 15.9491C4.88994 15.7363 4.67941 15.0259 4.49491 14.3972C4.4352 14.1177 4.32855 13.8503 4.17948 13.6064C3.89818 13.5384 3.60736 13.5188 3.31948 13.5484L3.31846 13.5484C2.66478 13.5633 1.92587 13.5801 1.53401 13.0425C1.14195 12.5046 1.38597 11.8128 1.60171 11.2027C1.71912 10.9338 1.78789 10.6461 1.80481 10.3532C1.62105 10.1428 1.40419 9.96391 1.16278 9.82347L1.1577 9.81998C0.614377 9.44738 0 9.02605 0 8.34079C0 7.65339 0.618217 7.23008 1.16278 6.85811C1.40425 6.71744 1.62111 6.53827 1.80481 6.32768C1.7859 6.03459 1.71512 5.74719 1.59576 5.47884L1.59225 5.46897C1.37588 4.86141 1.13293 4.17922 1.52732 3.63906C1.92384 3.09599 2.6596 3.11533 3.31278 3.13318C3.60101 3.1616 3.89195 3.14148 4.17352 3.07367C4.32143 2.82998 4.42731 2.56315 4.48673 2.28434L4.48703 2.28331C4.67294 1.65493 4.8836 0.942897 5.52825 0.733221C6.14569 0.532296 6.71325 0.963109 7.2167 1.34525C7.224 1.35079 7.23129 1.35633 7.23857 1.36185C7.46123 1.5638 7.71923 1.72294 7.99963 1.83128C8.27712 1.72205 8.53229 1.56295 8.7525 1.36185L8.75838 1.35737C9.26728 0.970128 9.84254 0.532384 10.4636 0.732477C11.1101 0.945245 11.3206 1.65571 11.5051 2.28434C11.5646 2.56405 11.6715 2.83152 11.8213 3.07516C12.1023 3.14316 12.3929 3.16278 12.6805 3.13318L12.6811 3.13317C13.3319 3.11829 14.0733 3.10135 14.466 3.63906C14.8588 4.17694 14.614 4.8688 14.3975 5.47958C14.2798 5.74833 14.2101 6.03561 14.1915 6.32842ZM6.9603 10.6315C7.03326 10.6651 7.1115 10.6823 7.1905 10.6821C7.32063 10.6821 7.44725 10.6353 7.5514 10.5488L10.7594 7.88213C10.887 7.77604 10.9714 7.61811 10.994 7.44308C11.0165 7.26804 10.9754 7.09025 10.8797 6.9488C10.784 6.80735 10.6415 6.71384 10.4836 6.68883C10.3256 6.66383 10.1652 6.70938 10.0376 6.81546L7.24664 9.13546L6.01156 7.76657C5.89753 7.64881 5.74672 7.5847 5.59089 7.58775C5.43506 7.5908 5.28638 7.66077 5.17618 7.78291C5.06597 7.90506 5.00284 8.06984 5.00009 8.24255C4.99734 8.41527 5.05519 8.58242 5.16144 8.7088L6.76544 10.4866C6.82111 10.5487 6.88734 10.598 6.9603 10.6315Z" fill="#005374"/>
</g>
<defs>
<clipPath id="clip0_1765_1104">
<rect width="16" height="16" fill="white" transform="translate(0 0.182129)"/>
</clipPath>
</defs>
</svg>
