<?xml version="1.0"?>
<svg xmlns="http://www.w3.org/2000/svg" width="65" height="64" viewBox="0 0 65 64" fill="none">
<circle cx="32.3333" cy="32" r="31" stroke="#4E6172" stroke-width="2"/>
<g clip-path="url(#clip0_1765_913)">
<path d="M35.1821 36.0903C35.2954 36.1367 35.4088 36.147 35.5427 36.1624C35.656 36.1521 35.79 36.1418 35.9033 36.0903C36.0166 36.0439 36.1197 35.9718 36.2072 35.8842C36.3876 35.7039 36.4854 35.467 36.4854 35.2145C36.4854 34.9621 36.3824 34.72 36.2072 34.5448L33.276 31.6136V27.1885C33.276 26.9361 33.1782 26.6991 32.9979 26.5188C32.6424 26.1633 32.0139 26.1633 31.6585 26.5188C31.4782 26.6991 31.3803 26.9361 31.3803 27.1885V32.0051C31.3803 32.2576 31.4782 32.4945 31.6585 32.6748L34.8679 35.8842C34.9554 35.9718 35.0585 36.0439 35.1769 36.0903H35.1821Z" fill="#4E6172"/>
<path d="M46.4691 22.5573C44.5939 19.7548 41.9564 17.5861 38.8397 16.2982C36.7636 15.4379 34.5588 15 32.3436 15C31.2361 15 30.1233 15.1082 29.0158 15.3297C25.7085 15.9891 22.6948 17.5964 20.3097 19.9815C17.9297 22.3667 16.3224 25.3752 15.663 28.6876C15.0036 31.9948 15.3385 35.3948 16.6315 38.5115C17.9245 41.6282 20.0882 44.2658 22.8906 46.1409C25.693 48.0161 28.9591 49.0051 32.3333 49.0051C35.007 49 37.6806 48.3561 40.0658 47.1352C41.6267 46.3367 43.0639 45.2909 44.3106 44.0545L44.2385 46.28C44.2333 46.45 44.2488 46.6097 44.29 46.7642C44.3312 46.9188 44.393 47.0579 44.4806 47.1764C44.563 47.3 44.6661 47.3927 44.7742 47.4648C44.8824 47.5318 45.0009 47.5679 45.1194 47.5782C45.3615 47.5627 45.583 47.4288 45.7479 47.197C45.9179 46.9652 46.0054 46.6561 46.0054 46.3367L46.2579 41.6539C46.2579 41.6539 46.263 41.6385 46.263 41.6333C46.2939 41.5097 46.2939 41.3861 46.2785 41.2624C46.2785 41.2418 46.2682 41.2264 46.263 41.2109C46.263 41.2006 46.263 41.1955 46.263 41.1852C46.2373 41.0924 46.2064 40.9997 46.1548 40.9173C46.0879 40.8091 46.0054 40.7215 45.9024 40.6442C45.7994 40.5721 45.6861 40.5206 45.5676 40.4897C45.4491 40.4588 45.3203 40.4536 45.1967 40.4742C45.1812 40.4742 45.1709 40.4845 45.1554 40.4845L40.6221 40.6133C40.2924 40.6133 39.9936 40.7112 39.7721 40.8915C39.5506 41.0718 39.427 41.3088 39.427 41.5612C39.427 41.8136 39.5506 42.0506 39.7721 42.2309C39.9936 42.4112 40.2924 42.5091 40.6118 42.5091H40.7303L43.2391 42.437C41.2454 44.5182 38.7006 46.007 35.8724 46.687C32.3745 47.5318 28.6809 47.0991 25.4715 45.4661C22.2621 43.833 19.7379 41.1079 18.3573 37.78C16.9767 34.4573 16.8324 30.7379 17.94 27.3173C19.0527 23.8915 21.3554 20.9706 24.4258 19.0903C27.4961 17.21 31.1433 16.4836 34.6979 17.0503C38.2524 17.617 41.4979 19.4355 43.8315 22.1761C46.1651 24.9167 47.453 28.4042 47.4479 32.0051C47.4479 32.6542 47.4015 33.3085 47.3191 33.9473C47.3036 34.1739 47.3758 34.4058 47.5251 34.5964C47.6745 34.7818 47.8909 34.9055 48.1279 34.9415C48.3648 34.9724 48.607 34.9209 48.8027 34.787C48.9985 34.653 49.1376 34.447 49.1891 34.21C49.2921 33.4939 49.3488 32.747 49.3436 32.0051C49.3436 28.6309 48.3545 25.3648 46.4794 22.5573H46.4691Z" fill="#4E6172"/>
<path d="M32.3333 22.516C32.5857 22.516 32.8227 22.4129 32.9979 22.2326C33.173 22.0523 33.276 21.8154 33.2812 21.5629V19.9608C33.2812 19.7135 33.1782 19.4663 33.003 19.2911C32.8227 19.1108 32.5857 19.0129 32.3333 19.0129C32.0809 19.0129 31.8439 19.1108 31.6636 19.2911C31.4833 19.4714 31.3854 19.7084 31.3854 19.9608V21.5681C31.3854 21.8154 31.4885 22.0523 31.6688 22.2326C31.8491 22.4129 32.0809 22.5108 32.3333 22.516Z" fill="#4E6172"/>
<path d="M40.8127 22.5779C40.5706 22.5779 40.3439 22.6655 40.1688 22.8303L39.0509 23.9482C38.9582 24.0358 38.8912 24.1388 38.8397 24.2573C38.7933 24.3706 38.7675 24.4943 38.7675 24.6179C38.7675 24.7415 38.7933 24.8652 38.8397 24.9785C38.886 25.0918 38.9582 25.1949 39.0457 25.2825C39.1385 25.3803 39.2415 25.4473 39.3548 25.4937C39.4682 25.54 39.5815 25.5709 39.7154 25.5606H39.7206C39.8442 25.5709 39.9679 25.5349 40.0812 25.4885C40.1945 25.4421 40.2975 25.37 40.3851 25.2825L41.5082 24.1594C41.6679 23.9843 41.7606 23.7525 41.7554 23.5052C41.7503 23.2579 41.6524 23.0261 41.4772 22.8509C41.3021 22.6758 41.0703 22.5779 40.823 22.5728C40.8178 22.5728 40.8127 22.5728 40.8075 22.5728L40.8127 22.5779Z" fill="#4E6172"/>
<path d="M42.7703 31.0574C42.523 31.0574 42.2757 31.1604 42.1006 31.3356C41.9254 31.5107 41.8224 31.7528 41.8224 32.0053C41.8224 32.2577 41.9203 32.4946 42.1006 32.6749C42.2757 32.8501 42.523 32.9531 42.7703 32.9531H44.3775C44.63 32.9531 44.8669 32.8553 45.0472 32.6749C45.2275 32.4946 45.3254 32.2577 45.3254 32.0053C45.3254 31.7528 45.2224 31.5107 45.0472 31.3356C44.8669 31.1553 44.63 31.0574 44.3775 31.0574H42.7703Z" fill="#4E6172"/>
<path d="M31.6636 41.7672C31.4885 41.9423 31.3854 42.1896 31.3854 42.4369V44.0442C31.3854 44.2914 31.4885 44.5336 31.6688 44.7087C31.8491 44.8839 32.0809 44.9869 32.3333 44.992C32.5857 44.992 32.8227 44.889 32.9979 44.7087C33.173 44.5284 33.276 44.2914 33.2812 44.039V42.4369C33.2812 42.1896 33.1782 41.9423 33.003 41.7672C32.8279 41.592 32.5857 41.489 32.3333 41.489C32.0809 41.489 31.8439 41.5869 31.6636 41.7672Z" fill="#4E6172"/>
<path d="M24.9357 38.4702H24.9203C24.6782 38.4702 24.4515 38.5578 24.2763 38.7227L23.1585 39.8405C23.0657 39.9281 22.9988 40.0311 22.9472 40.1496C22.9009 40.263 22.8751 40.3866 22.8751 40.5102C22.8751 40.6339 22.9009 40.7575 22.9472 40.8708C22.9936 40.9842 23.0657 41.0872 23.1533 41.1748C23.246 41.2727 23.3439 41.3396 23.4624 41.386C23.5757 41.4324 23.6994 41.453 23.8178 41.453H23.823C23.9466 41.4581 24.0703 41.4272 24.1836 41.3808C24.2969 41.3345 24.4 41.2624 24.4875 41.1748L25.6106 40.0518C25.7703 39.8766 25.863 39.6448 25.8578 39.3975C25.8578 39.1502 25.7548 38.9184 25.5797 38.7433C25.4045 38.5681 25.1727 38.4702 24.9254 38.4651L24.9357 38.4702Z" fill="#4E6172"/>
<path d="M20.2942 31.0574C20.0418 31.0574 19.8048 31.1553 19.6245 31.3356C19.4442 31.5159 19.3463 31.7528 19.3463 32.0053C19.3463 32.2577 19.4442 32.4946 19.6245 32.6749C19.8048 32.8553 20.0418 32.9531 20.2942 32.9531H21.9015C22.1488 32.9531 22.396 32.8501 22.5712 32.6749C22.7463 32.4998 22.8494 32.2577 22.8494 32.0053C22.8494 31.7528 22.7463 31.5107 22.5712 31.3356C22.396 31.1604 22.1539 31.0574 21.9015 31.0574H20.2942Z" fill="#4E6172"/>
<path d="M25.8321 24.2573C25.7857 24.1439 25.7136 24.0409 25.626 23.9533L24.4979 22.8252C24.3227 22.6655 24.1063 22.5676 23.8436 22.5779C23.5963 22.5779 23.3645 22.6809 23.1894 22.8561C23.0142 23.0312 22.9163 23.263 22.9112 23.5103C22.9112 23.7576 22.9988 23.9946 23.1636 24.1749L24.2815 25.2927C24.3691 25.3803 24.4721 25.4524 24.5854 25.4988C24.6988 25.5452 24.8276 25.5812 24.946 25.5709H24.9512C25.0748 25.5709 25.1933 25.5503 25.3066 25.5039C25.42 25.4576 25.523 25.3855 25.6054 25.2979C25.7033 25.2052 25.7703 25.1021 25.8218 24.9888C25.8682 24.8755 25.8939 24.7518 25.8939 24.6282C25.8939 24.5046 25.8682 24.3809 25.8218 24.2676L25.8321 24.2573Z" fill="#4E6172"/>
</g>
<defs>
<clipPath id="clip0_1765_913">
<rect width="34" height="34" fill="white" transform="translate(15.3333 15)"/>
</clipPath>
</defs>
</svg>
