<?xml version="1.0"?>
<svg xmlns="http://www.w3.org/2000/svg" width="96" height="17" viewBox="0 0 96 17" fill="none">
<g clip-path="url(#clip0_1765_872)">
<path d="M16 6.68179L10.1863 6.29957L7.99681 0.799072L5.80734 6.29957L0 6.68179L4.45419 10.4639L2.99256 16.201L7.99681 13.0379L13.0011 16.201L11.5395 10.4639L16 6.68179Z" fill="#FAD74F"/>
</g>
<g clip-path="url(#clip1_1765_872)">
<path d="M36 6.68179L30.1863 6.29957L27.9968 0.799072L25.8073 6.29957L20 6.68179L24.4542 10.4639L22.9926 16.201L27.9968 13.0379L33.0011 16.201L31.5395 10.4639L36 6.68179Z" fill="#FAD74F"/>
</g>
<g clip-path="url(#clip2_1765_872)">
<path d="M56 6.68179L50.1863 6.29957L47.9968 0.799072L45.8073 6.29957L40 6.68179L44.4542 10.4639L42.9926 16.201L47.9968 13.0379L53.0011 16.201L51.5395 10.4639L56 6.68179Z" fill="#FAD74F"/>
</g>
<g clip-path="url(#clip3_1765_872)">
<path d="M76 6.68179L70.1863 6.29957L67.9968 0.799072L65.8073 6.29957L60 6.68179L64.4542 10.4639L62.9926 16.201L67.9968 13.0379L73.0011 16.201L71.5395 10.4639L76 6.68179Z" fill="#FAD74F"/>
</g>
<g clip-path="url(#clip4_1765_872)">
<path d="M96 6.68179L90.1863 6.29957L87.9968 0.799072L85.8073 6.29957L80 6.68179L84.4542 10.4639L82.9926 16.201L87.9968 13.0379L93.0011 16.201L91.5395 10.4639L96 6.68179Z" fill="#FAD74F"/>
</g>
<defs>
<clipPath id="clip0_1765_872">
<rect width="16" height="16" fill="white" transform="translate(0 0.5)"/>
</clipPath>
<clipPath id="clip1_1765_872">
<rect width="16" height="16" fill="white" transform="translate(20 0.5)"/>
</clipPath>
<clipPath id="clip2_1765_872">
<rect width="16" height="16" fill="white" transform="translate(40 0.5)"/>
</clipPath>
<clipPath id="clip3_1765_872">
<rect width="16" height="16" fill="white" transform="translate(60 0.5)"/>
</clipPath>
<clipPath id="clip4_1765_872">
<rect width="16" height="16" fill="white" transform="translate(80 0.5)"/>
</clipPath>
</defs>
</svg>
