<?xml version="1.0"?>
<svg xmlns="http://www.w3.org/2000/svg" width="20" height="21" viewBox="0 0 20 21" fill="none">
<g id="check 1" clip-path="url(#clip0_1765_1063)">
<path id="Vector" d="M10 0.591064C4.48578 0.591064 0 5.07684 0 10.5911C0 16.1053 4.48578 20.5911 10 20.5911C15.5142 20.5911 20 16.1053 20 10.5911C20 5.07684 15.5142 0.591064 10 0.591064Z" fill="#62D070"/>
<path id="Vector_2" d="M15.0686 8.47217L9.65186 13.8887C9.48936 14.0512 9.27604 14.133 9.06272 14.133C8.8494 14.133 8.63609 14.0512 8.47358 13.8887L5.7653 11.1805C5.43937 10.8547 5.43937 10.3279 5.7653 10.0022C6.09107 9.67624 6.61765 9.67624 6.94358 10.0022L9.06272 12.1213L13.8903 7.29388C14.2161 6.96796 14.7427 6.96796 15.0686 7.29388C15.3944 7.61966 15.3944 8.14624 15.0686 8.47217Z" fill="white"/>
</g>
<defs>
<clipPath id="clip0_1765_1063">
<rect width="20" height="20" fill="white" transform="translate(0 0.591064)"/>
</clipPath>
</defs>
</svg>
